<svg xmlns="http://www.w3.org/2000/svg" width="68" height="46" viewBox="0 0 68 46" fill="none"><path d="M67.916 12.6482C67.905 12.6152 67.8904 12.5895 67.8794 12.5565C67.8574 12.4979 67.8391 12.4356 67.8061 12.3843C67.7841 12.3476 67.7548 12.3183 67.7291 12.2817C67.6998 12.2377 67.6705 12.1937 67.6338 12.157C67.6008 12.1241 67.5605 12.0984 67.5202 12.0691C67.4835 12.0398 67.4506 12.0068 67.4102 11.9811C67.4066 11.9811 67.4066 11.9774 67.4029 11.9774C67.3992 11.9774 67.3992 11.9738 67.3956 11.9701L46.3863 0.142939C46.0491 -0.0476465 45.6386 -0.0476465 45.3051 0.142939L36.9374 4.85636L34.8043 6.0585L24.3001 11.9741C24.2964 11.9778 24.2964 11.9778 24.2928 11.9815C24.2891 11.9815 24.2891 11.9815 24.2854 11.9851C24.2451 12.0108 24.2121 12.0438 24.1755 12.0731C24.1388 12.1024 24.0949 12.1281 24.0619 12.1611C24.0289 12.1941 24.0032 12.238 23.9739 12.2747C23.9446 12.3113 23.9116 12.348 23.8896 12.3883C23.8676 12.4286 23.8566 12.4726 23.8383 12.5129C23.82 12.5606 23.7943 12.6046 23.7796 12.6522C23.7723 12.6779 23.7723 12.7072 23.7687 12.7365C23.754 12.8025 23.743 12.8721 23.743 12.9418V12.9454V16.3357L11.9928 16.3321C11.3843 16.3321 10.8895 16.8269 10.8895 17.4353C10.8895 18.0438 11.3843 18.5386 11.9928 18.5386H23.7364V21.9692H8.7125C8.10407 21.9692 7.60925 22.464 7.60925 23.0724C7.60925 23.6808 8.10405 24.1756 8.7125 24.1756H23.7364V27.6062H16.7359C16.1275 27.6062 15.6327 28.101 15.6327 28.7095C15.6327 29.3179 16.1275 29.8127 16.7359 29.8127H23.7364V32.6495C23.7364 33.0491 23.9527 33.4156 24.2972 33.6098L45.3027 45.4407C45.3577 45.47 45.4164 45.492 45.4787 45.5104C45.508 45.5214 45.5337 45.536 45.5666 45.5434C45.6583 45.569 45.7536 45.58 45.8489 45.58C45.9442 45.58 46.0395 45.5653 46.1311 45.5434C46.1567 45.536 46.1824 45.5214 46.2081 45.514C46.2704 45.492 46.3327 45.4737 46.3913 45.4407L67.4006 33.6098C67.7488 33.4155 67.9614 33.0454 67.9614 32.6495L67.9577 12.9379C67.9577 12.8389 67.9431 12.74 67.9174 12.6484L67.916 12.6482ZM65.7499 32.0042L46.9475 42.5928V25.4174L53.1087 21.9465V25.8792C53.1087 26.2714 53.3176 26.6343 53.6548 26.8321C53.827 26.9311 54.0213 26.9824 54.2119 26.9824C54.3988 26.9824 54.5857 26.9348 54.7543 26.8395L59.0243 24.4351C59.3725 24.2409 59.5851 23.8707 59.5851 23.4749V18.296L65.7463 14.825L65.7499 32.0042ZM45.8478 2.37106L64.6061 12.9381L58.4853 16.3871L39.7232 5.81628L45.8478 2.37106ZM57.3822 19.539V22.8303L55.3187 23.9922V20.7009L56.5209 20.0228L56.8287 19.8505L57.3822 19.539ZM55.7695 17.9153L55.0767 18.3038L54.34 18.718L54.2154 18.7876L35.4533 8.2243L37.4765 7.08446L56.2348 17.6515L55.7695 17.9153ZM33.2064 9.48894L51.9647 20.056L45.8475 23.505L43.0033 21.9033L27.089 12.9382L33.2064 9.48894ZM25.9419 28.7089V14.825L44.7406 25.4174V42.5966L25.9419 32.0042V28.7089Z" fill="#3FAB39"></path><path d="M5.6078 21.9692H1.10324C0.494817 21.9692 0 22.464 0 23.0724C0 23.6809 0.494798 24.1757 1.10324 24.1757H5.6078C6.21622 24.1757 6.71104 23.6809 6.71104 23.0724C6.71104 22.4603 6.21624 21.9692 5.6078 21.9692Z" fill="#3FAB39"></path><path d="M13.2164 27.6064H8.71188C8.10346 27.6064 7.60864 28.1012 7.60864 28.7097C7.60864 29.3181 8.10344 29.8129 8.71188 29.8129H13.2164C13.8249 29.8129 14.3197 29.3181 14.3197 28.7097C14.3197 28.1012 13.8285 27.6064 13.2164 27.6064Z" fill="#3FAB39"></path></svg>