<svg xmlns="http://www.w3.org/2000/svg" width="46" height="45" viewBox="0 0 46 45" fill="none"><path d="M6.89003 18.3494C6.89003 18.0201 7.15597 17.752 7.48699 17.752H9.31607C9.64516 17.752 9.91304 18.0181 9.91304 18.3494C9.91304 18.6787 9.64709 18.9468 9.31607 18.9468H7.48699C7.15791 18.9468 6.89003 18.6787 6.89003 18.3494ZM15.9434 34.2884H13.4887L13.4868 36.7447C13.4868 37.074 13.2208 37.3421 12.8898 37.3421H8.89108C8.56199 37.3421 8.29412 37.076 8.29412 36.7447V34.2884H5.83942C5.51033 34.2884 5.24246 34.0222 5.24246 33.691V29.6895C5.24246 29.3602 5.5084 29.0922 5.83942 29.0922H8.29412V26.6358C8.29412 26.3065 8.56006 26.0384 8.89108 26.0384H12.8898C13.2189 26.0384 13.4868 26.3045 13.4868 26.6358V29.0922H15.9415C16.2705 29.0922 16.5384 29.3583 16.5384 29.6895V33.691C16.5403 34.0203 16.2724 34.2884 15.9434 34.2884ZM15.3464 30.285H12.8917C12.5626 30.285 12.2948 30.0189 12.2948 29.6876V27.2312H9.48799V29.6876C9.48799 30.0169 9.22205 30.285 8.89103 30.285H6.43633V33.0937H8.89103C9.22011 33.0937 9.48799 33.3598 9.48799 33.691V36.1474H12.2948V33.691C12.2948 33.3617 12.5607 33.0937 12.8917 33.0937H15.3464V30.285ZM45.9184 29.701V41.7876C45.9184 43.5586 44.4777 44.9983 42.7098 44.9983H34.7678C32.998 44.9983 31.5593 43.5567 31.5593 41.7876V29.701C31.5593 27.9741 32.9292 26.5612 34.6377 26.4922V24.4704C33.6103 24.2675 32.8335 23.3581 32.8335 22.2725C32.8335 21.0357 33.838 20.0306 35.0739 20.0306H42.4037C43.6397 20.0306 44.6441 21.0357 44.6441 22.2725C44.6441 23.3581 43.8674 24.2675 42.8399 24.4704V26.4903C44.5485 26.5592 45.9184 27.9722 45.9184 29.701ZM35.0738 23.3215H42.4036C42.9814 23.3215 43.4501 22.8506 43.4501 22.2743C43.4501 21.6961 42.9795 21.227 42.4036 21.227L35.0738 21.2251C34.496 21.2251 34.0273 21.6961 34.0273 22.2724C34.0273 22.8506 34.496 23.3215 35.0738 23.3215ZM44.7262 29.701C44.7262 28.5887 43.8212 27.6831 42.7096 27.6831H42.2428C41.9137 27.6831 41.6458 27.417 41.6458 27.0857V24.5145H35.8295V27.0857C35.8295 27.415 35.5636 27.6831 35.2326 27.6831H34.7657C33.6542 27.6831 32.7492 28.5887 32.7492 29.701V41.7876C32.7492 42.9 33.6542 43.8056 34.7657 43.8056H42.7097C43.8213 43.8056 44.7263 42.9 44.7263 41.7876L44.7262 29.701ZM43.54 30.0916V41.395C43.54 41.7243 43.274 41.9923 42.943 41.9923H34.5323C34.2032 41.9923 33.9353 41.7262 33.9353 41.395L33.9372 30.0916C33.9372 29.7623 34.2032 29.4943 34.5342 29.4943H42.9449C43.274 29.4943 43.54 29.7623 43.54 30.0916ZM42.348 30.687H35.1294V40.7979H42.348V30.687ZM36.3804 33.5723H41.0985C41.4275 33.5723 41.6954 33.3061 41.6954 32.9749C41.6954 32.6456 41.4295 32.3775 41.0985 32.3775H36.3804C36.0513 32.3775 35.7834 32.6437 35.7834 32.9749C35.7834 33.3061 36.0494 33.5723 36.3804 33.5723ZM36.3804 36.3407H41.0985C41.4275 36.3407 41.6954 36.0746 41.6954 35.7433C41.6954 35.414 41.4295 35.146 41.0985 35.146H36.3804C36.0513 35.146 35.7834 35.4121 35.7834 35.7433C35.7834 36.0726 36.0494 36.3407 36.3804 36.3407ZM36.3804 39.1072H39.3612C39.6903 39.1072 39.9582 38.8411 39.9582 38.5099C39.9582 38.1806 39.6922 37.9125 39.3612 37.9125H36.3804C36.0513 37.9125 35.7834 38.1786 35.7834 38.5099C35.7834 38.8411 36.0494 39.1072 36.3804 39.1072ZM30.2046 36.7504C30.5069 38.6267 30.0611 40.5087 28.9476 42.0497C27.836 43.5909 26.1905 44.6056 24.3156 44.9081C23.9329 44.9694 23.5484 45 23.1696 45C21.9776 45 20.8105 44.6994 19.7621 44.1212C18.9604 44.6898 17.998 45 17.0127 45H4.76785C2.13903 44.9981 0 42.8576 0 40.2251V22.9422C0 22.1208 0.325253 21.401 0.941335 20.8591L4.30485 17.9011C4.66071 17.589 4.84058 17.1889 4.84058 16.716V13.7676C4.22452 13.5282 3.7864 12.9271 3.7864 12.2263V11.2576C3.7864 10.3462 4.52682 9.60529 5.43754 9.60529H16.3453C17.256 9.60529 17.9964 10.3462 17.9964 11.2576V12.2263C17.9964 12.9271 17.5583 13.5263 16.9422 13.7676V16.716C16.9422 17.1889 17.1221 17.589 17.478 17.9011L20.8415 20.8591C21.4575 21.401 21.7828 22.1208 21.7828 22.9422V30.9068C21.8727 30.8895 21.9626 30.8704 22.0526 30.857C23.9275 30.5545 25.8083 31.0006 27.3482 32.1148C28.8884 33.2253 29.9023 34.8722 30.2046 36.7504ZM19.6931 33.0993L28.8214 39.697C29.1045 38.8182 29.1792 37.8781 29.0299 36.94C28.7793 35.3777 27.9336 34.0088 26.6517 33.0821C25.3698 32.1555 23.8048 31.7841 22.2436 32.0368C21.3042 32.1861 20.4373 32.5537 19.6931 33.0993ZM4.98018 12.2267C4.98018 12.4795 5.18489 12.6843 5.43744 12.6843H16.3451C16.5977 12.6843 16.8024 12.4795 16.8024 12.2267V11.258C16.8024 11.0052 16.5977 10.8004 16.3451 10.8004H5.43744C5.18489 10.8004 4.98018 11.0052 4.98018 11.258V12.2267ZM1.23786 22.5557H20.5445C20.4718 22.2475 20.3092 21.9794 20.0528 21.7554L16.8577 18.9448L11.2099 18.9467C10.8808 18.9467 10.613 18.6806 10.613 18.3494C10.613 18.0201 10.8789 17.752 11.2099 17.752H15.9433C15.8151 17.4304 15.7482 17.0838 15.7482 16.7143V13.8769L6.03458 13.8788V16.7162C6.03458 17.5376 5.70933 18.2574 5.09325 18.7993L1.72974 21.7573C1.47527 21.9794 1.31247 22.2494 1.23786 22.5557ZM1.19194 39.6298H16.2913C16.2416 39.4269 16.1976 39.2239 16.1631 39.0152C15.8608 37.139 16.3066 35.2569 17.4201 33.716C18.2313 32.5921 19.3276 31.7478 20.5904 31.2558V23.7509H1.19212L1.19194 39.6298ZM17.0147 43.8055C17.5983 43.8055 18.1703 43.66 18.6831 43.3881C17.8259 42.6893 17.1563 41.8124 16.7105 40.8226H1.24185C1.52692 42.5131 3.00011 43.8054 4.76797 43.8054L17.0147 43.8055ZM26.6769 42.6663L17.5506 36.0687C17.2674 36.9475 17.1928 37.8875 17.342 38.8257C17.5927 40.3879 18.4383 41.7569 19.7202 42.6835C21.0021 43.6101 22.5671 43.9816 24.1284 43.7289C25.064 43.5776 25.9327 43.2101 26.6769 42.6663ZM28.328 40.813L18.7883 33.9169C18.6467 34.0739 18.5128 34.2405 18.3865 34.4128C18.2603 34.587 18.1455 34.767 18.0422 34.9508L27.5819 41.8449C27.7234 41.688 27.8574 41.5214 27.9837 41.3491C28.108 41.1749 28.2228 40.9969 28.328 40.813ZM6.62968 3.26822C6.95876 3.26822 7.22664 3.0021 7.22664 2.67086V0.597368C7.22664 0.268061 6.9607 0 6.62968 0C6.3006 0 6.03468 0.268041 6.03468 0.597368V2.67277C6.03468 3.00207 6.30062 3.26822 6.62968 3.26822ZM7.89433 4.53565H9.96831C10.2974 4.53565 10.5653 4.26952 10.5653 3.93828C10.5653 3.60897 10.2993 3.34091 9.96831 3.34091H7.89433C7.56524 3.34091 7.29736 3.60704 7.29736 3.93828C7.29928 4.26759 7.56522 4.53565 7.89433 4.53565ZM6.62968 7.87465C6.95876 7.87465 7.22664 7.60852 7.22664 7.27728V5.20188C7.22664 4.87257 6.9607 4.60451 6.62968 4.60451C6.3006 4.60451 6.03272 4.87064 6.03272 5.20188V7.27728C6.03463 7.6085 6.30058 7.87465 6.62968 7.87465ZM3.29296 4.53565H5.36694C5.69602 4.53565 5.9639 4.26952 5.9639 3.93828C5.9639 3.60897 5.69796 3.34091 5.36694 3.34091H3.29296C2.96387 3.34091 2.696 3.60704 2.696 3.93828C2.696 4.26759 2.96194 4.53565 3.29296 4.53565ZM39.2889 3.26822C39.618 3.26822 39.8858 3.0021 39.8858 2.67086L39.8839 0.597368C39.8839 0.268061 39.618 0 39.287 0C38.9579 0 38.69 0.266125 38.69 0.597368V2.67277C38.6919 3.00207 38.9579 3.26822 39.2889 3.26822ZM40.5535 4.53565H42.6275C42.9566 4.53565 43.2245 4.26952 43.2245 3.93828C43.2245 3.60897 42.9585 3.34091 42.6275 3.34091H40.5535C40.2244 3.34091 39.9566 3.60704 39.9566 3.93828C39.9566 4.26759 40.2225 4.53565 40.5535 4.53565ZM39.2889 7.87465C39.618 7.87465 39.8858 7.60852 39.8858 7.27728V5.20188C39.8858 4.87257 39.6199 4.60451 39.2889 4.60451C38.9598 4.60451 38.6919 4.87064 38.6919 5.20188V7.27728C38.6919 7.6085 38.9579 7.87465 39.2889 7.87465ZM35.9503 4.53565H38.0242C38.3533 4.53565 38.6212 4.26952 38.6212 3.93828C38.6212 3.60897 38.3553 3.34091 38.0242 3.34091H35.9503C35.6212 3.34091 35.3533 3.60704 35.3533 3.93828C35.3533 4.26759 35.6211 4.53565 35.9503 4.53565Z" fill="#3FAB39"></path></svg>