<svg xmlns="http://www.w3.org/2000/svg" width="54" height="52" viewBox="0 0 54 52" fill="none"><path fill-rule="evenodd" clip-rule="evenodd" d="M47.9649 34.4454C47.7631 34.512 47.5433 34.4961 47.3531 34.4011C47.163 34.3062 47.018 34.1399 46.9496 33.9385L46.6824 33.2457C46.4174 33.3677 46.1482 33.4794 45.8746 33.5808C45.4283 33.7455 44.9721 33.8818 44.5087 33.9888L44.783 34.6716C44.8516 34.8714 44.839 35.0902 44.7481 35.2809C44.6572 35.4716 44.4952 35.619 44.297 35.6913L44.4986 36.2734L48.1648 35.0192L47.9679 34.4454H47.9649ZM26.7822 25.8941L26.8266 25.8467C27.1829 25.4601 27.4658 25.0116 27.6615 24.5233C28.022 23.6108 28.0557 22.6013 27.7566 21.6668C27.4576 20.7322 26.8444 19.9304 26.0214 19.3976C25.1984 18.8649 24.2165 18.6343 23.2427 18.745C22.269 18.8557 21.3637 19.3009 20.6809 20.0048C19.9981 20.7087 19.58 21.6278 19.4978 22.6057C19.4156 23.5836 19.6743 24.5598 20.2299 25.3682C20.7856 26.1765 21.6038 26.7671 22.5453 27.0393C23.4868 27.3115 24.4934 27.2485 25.3938 26.8611C25.9167 26.6353 26.3889 26.3065 26.7822 25.8941ZM28.6614 26.0866C30.4309 26.9563 31.9216 28.3053 32.9642 29.9805C34.0069 31.6557 34.5599 33.59 34.5604 35.564C34.5608 35.6703 34.5403 35.7757 34.5 35.8742C34.4597 35.9726 34.4003 36.062 34.3254 36.1374C34.2505 36.2128 34.1614 36.2726 34.0633 36.3134C33.9652 36.3542 33.86 36.3752 33.7538 36.3752H14.2794C14.0655 36.3752 13.8604 36.2901 13.7091 36.1386C13.5578 35.9872 13.4729 35.7817 13.4729 35.5675C13.4677 33.475 14.0696 31.4261 15.2054 29.6697C16.1279 28.245 17.3896 27.0724 18.8769 26.2571C18.2821 25.3831 17.9345 24.3642 17.871 23.3085C17.8074 22.2527 18.0303 21.1994 18.5159 20.2602C19.0015 19.321 19.7319 18.5308 20.6295 17.9734C21.5271 17.4161 22.5586 17.1123 23.6146 17.0943C24.6707 17.0762 25.7119 17.3447 26.628 17.8711C27.544 18.3975 28.3008 19.1622 28.8181 20.0844C29.3355 21.0065 29.594 22.0516 29.5664 23.1089C29.5388 24.1662 29.2261 25.1963 28.6614 26.0901V26.0866ZM31.346 30.4525C30.4006 29.0919 29.0958 28.0216 27.5775 27.3615C26.5351 28.2802 25.2001 28.7973 23.8116 28.8202C22.4231 28.8431 21.0719 28.3703 19.9998 27.4864C18.5945 28.1735 17.4026 29.231 16.5524 30.5455C15.7352 31.8101 15.2429 33.2574 15.1191 34.7586H32.9112C32.7718 33.2118 32.2323 31.7281 31.346 30.4537V30.4525ZM34.2919 14.8694C32.9577 16.131 31.9528 17.7011 31.3654 19.442C30.778 21.183 30.626 23.0416 30.9226 24.8551C31.2193 26.6685 31.9556 28.3814 33.0671 29.8437C34.1785 31.3059 35.6311 32.4728 37.2976 33.2421C37.5763 33.3704 37.857 33.4867 38.1396 33.5909C36.7195 36.5318 34.42 38.9567 31.5606 40.5287C28.7012 42.1008 25.4238 42.742 22.1838 42.3633C18.9438 41.9845 15.902 40.6046 13.4811 38.4152C11.0601 36.2259 9.38022 33.3358 8.67473 30.1465C7.96924 26.9571 8.2732 23.627 9.54438 20.6186C10.8156 17.6102 12.9909 15.073 15.768 13.3594C18.5452 11.6458 21.7864 10.841 25.0413 11.0568C28.2962 11.2725 31.4032 12.4981 33.9306 14.5633C34.0426 14.6545 34.163 14.7565 34.2919 14.8694ZM39.7084 34.041C38.1908 37.3216 35.6873 40.0452 32.548 41.8309C29.4087 43.6167 25.7906 44.3753 22.1996 44.0007C18.6086 43.626 15.2244 42.1369 12.5201 39.7414C9.81574 37.346 7.92663 34.1641 7.11689 30.6407C6.30714 27.1173 6.61726 23.4286 8.00387 20.0903C9.39049 16.7521 11.7843 13.9313 14.8504 12.0224C17.9166 10.1135 21.5019 9.2119 25.1049 9.44378C28.7078 9.67565 32.1484 11.0294 34.9453 13.3156C35.1576 13.4897 35.348 13.6514 35.5148 13.8L35.5579 13.8385C37.5774 12.4233 40.0062 11.7135 42.4688 11.8188C44.9315 11.9241 47.2909 12.8386 49.1826 14.421C51.0744 16.0035 52.393 18.1657 52.9349 20.5737C53.4767 22.9817 53.2116 25.5014 52.1804 27.7434C51.2964 29.6721 49.8825 31.3091 48.1039 32.4629L48.2529 32.8495C48.3926 32.873 48.5286 32.9148 48.6573 32.9739C48.8482 33.0611 49.0192 33.1866 49.1599 33.3425C49.3005 33.4984 49.4078 33.6815 49.4751 33.8805L51.6311 40.1508C51.648 40.1994 51.66 40.2496 51.6672 40.3006C51.8392 41.1451 51.6988 42.0234 51.2721 42.7719C50.8454 43.5205 50.1616 44.0882 49.348 44.3693C48.5185 44.6528 47.6139 44.6222 46.8054 44.2834C45.9967 43.9471 45.3421 43.3212 44.9693 42.5277C44.9541 42.4952 44.941 42.4618 44.9303 42.4276L42.7655 36.1774C42.6972 35.9794 42.6695 35.7697 42.6839 35.5607C42.6984 35.3518 42.7546 35.1479 42.8494 34.9612C42.9037 34.8556 42.9693 34.7563 43.0452 34.6651L42.8743 34.2441C41.815 34.3283 40.7491 34.2605 39.709 34.0427L39.7084 34.041ZM50.096 40.6429L49.4296 38.7077L45.7753 39.9595L46.4399 41.8775C46.6457 42.2923 46.9949 42.618 47.4227 42.7942C47.8684 42.9815 48.3673 42.9985 48.8247 42.8421C49.2664 42.6915 49.6386 42.3857 49.8723 41.9813C50.1061 41.5769 50.1856 41.1014 50.096 40.6429ZM48.9063 37.1835L48.6863 36.5434L45.0261 37.7964L45.2478 38.4365L48.9063 37.1835ZM50.7193 27.0684C51.6505 25.0463 51.8527 22.7634 51.2914 20.6087C50.7302 18.4541 49.4402 16.561 47.6414 15.252C45.8425 13.9431 43.6461 13.2993 41.4263 13.4303C39.2066 13.5614 37.1009 14.4592 35.4681 15.9708C33.8353 17.4823 32.7764 19.5141 32.4718 21.7199C32.1673 23.9256 32.636 26.1689 33.798 28.0674C34.96 29.9659 36.7435 31.4022 38.8445 32.1314C40.9454 32.8607 43.2339 32.8378 45.32 32.0667C46.5042 31.6305 47.5908 30.9645 48.5174 30.1067C49.4439 29.249 50.1922 28.2164 50.7193 27.0684ZM48.1955 25.9598C48.2075 25.9283 48.2215 25.8977 48.2375 25.8681C48.9792 24.2255 49.0457 22.3568 48.4228 20.6655C47.7999 18.9742 46.5375 17.5963 44.9084 16.8294C44.877 16.817 44.8464 16.8028 44.8168 16.7868C43.5856 16.2293 42.2174 16.0488 40.884 16.2677C39.5507 16.4867 38.3117 17.0955 37.3229 18.0176C36.334 18.9397 35.6394 20.1339 35.3264 21.4501C35.0133 22.7664 35.0957 24.1459 35.5633 25.4154C36.0309 26.6849 36.8628 27.7876 37.9544 28.585C39.046 29.3824 40.3486 29.8388 41.6985 29.897C43.0484 29.9552 44.3854 29.6125 45.5414 28.912C46.6973 28.2115 47.6208 27.1844 48.1955 25.9598ZM49.934 20.1082C49.5505 19.0631 48.9646 18.1042 48.2099 17.2866C47.4552 16.469 46.5466 15.8087 45.5364 15.3437H45.5287C44.0082 14.6434 42.3145 14.4103 40.6616 14.6738C39.0088 14.9373 37.4711 15.6856 36.2429 16.8241C35.0147 17.9626 34.1512 19.4402 33.7614 21.0701C33.3717 22.7 33.4732 24.4091 34.0533 25.9812C34.6333 27.5533 35.6657 28.9179 37.0201 29.9025C38.3745 30.8871 39.9899 31.4475 41.6623 31.5129C43.3346 31.5782 44.9888 31.1456 46.4156 30.2696C47.8425 29.3937 48.978 28.1138 49.6786 26.5917V26.5863C50.1443 25.5768 50.4064 24.4852 50.4498 23.374C50.4932 22.2628 50.3171 21.154 49.9316 20.1111L49.934 20.1082ZM34.8016 5.30437C34.8985 5.41234 34.9645 5.54448 34.9927 5.68686C35.0208 5.82924 35.0102 5.97659 34.9617 6.1134C34.9133 6.25021 34.8289 6.37141 34.7175 6.46423C34.6061 6.55706 34.4717 6.61807 34.3286 6.64086L29.5779 8.16683C29.4766 8.20232 29.3692 8.21712 29.2621 8.21038C29.1549 8.20364 29.0502 8.17548 28.9541 8.12757C28.858 8.07965 28.7725 8.01296 28.7025 7.93141C28.6326 7.84987 28.5796 7.75512 28.5468 7.65276C28.514 7.5504 28.502 7.4425 28.5115 7.33541C28.521 7.22833 28.5518 7.12423 28.6021 7.02926C28.6524 6.93429 28.7212 6.85037 28.8044 6.78244C28.8876 6.71451 28.9835 6.66396 29.0866 6.63375L31.903 5.72894C28.4738 4.43974 24.7813 4.01193 21.1487 4.48294C17.5161 4.95396 14.0541 6.30944 11.0659 8.43076C8.07762 10.5521 5.65414 13.3745 4.00755 16.6511C2.36096 19.9277 1.54147 23.5585 1.62079 27.2258C1.70012 30.893 2.67585 34.4849 4.46258 37.687C6.24931 40.8891 8.79257 43.6038 11.8698 45.5936C14.9469 47.5833 18.4642 48.7874 22.1138 49.1004C25.7634 49.4135 29.4339 48.826 32.8042 47.3893L30.7032 46.6556C30.6035 46.6206 30.5117 46.5663 30.4329 46.4957C30.3542 46.4252 30.2901 46.3398 30.2443 46.2445C30.1518 46.0519 30.1395 45.8304 30.2101 45.6288C30.2806 45.4271 30.4283 45.2618 30.6206 45.1692C30.8129 45.0766 31.034 45.0643 31.2354 45.1349L35.0559 46.4696C35.1972 46.4923 35.3299 46.5523 35.4403 46.6436C35.5506 46.7348 35.6346 46.8539 35.6836 46.9886C35.7326 47.1232 35.7447 47.2685 35.7188 47.4095C35.6928 47.5504 35.6297 47.6818 35.536 47.7901L34.0832 51.4698C34.0463 51.571 33.9895 51.6637 33.9162 51.7426C33.843 51.8215 33.7547 51.8849 33.6566 51.929C33.5584 51.9732 33.4525 51.9973 33.345 51.9998C33.2374 52.0023 33.1304 51.9832 33.0304 51.9437C32.9303 51.9042 32.8392 51.845 32.7623 51.7696C32.6854 51.6942 32.6244 51.6042 32.5828 51.5049C32.5412 51.4055 32.5199 51.2988 32.5202 51.1911C32.5204 51.0834 32.5422 50.9768 32.5842 50.8776L33.3641 48.9016C29.7402 50.4336 25.7961 51.051 21.8782 50.6995C17.9602 50.348 14.1885 49.0384 10.8942 46.8857C7.59993 44.733 4.88396 41.8032 2.98489 38.3535C1.08583 34.9038 0.0617777 31.0398 0.00270901 27.1011C-0.0563597 23.1624 0.85136 19.2694 2.64612 15.7641C4.44089 12.2589 7.06777 9.24866 10.296 6.99788C13.5242 4.74709 17.255 3.32464 21.1606 2.85548C25.0662 2.38633 29.0271 2.88482 32.6954 4.30718L31.4873 1.13798C31.4423 1.03769 31.4182 0.929248 31.4166 0.819306C31.4149 0.709365 31.4357 0.600243 31.4777 0.498637C31.5196 0.39703 31.5819 0.305081 31.6606 0.228432C31.7393 0.151783 31.8328 0.0920503 31.9354 0.0528988C32.0381 0.0137473 32.1476 -0.0039973 32.2573 0.000753888C32.367 0.00550507 32.4745 0.0326517 32.5734 0.0805283C32.6722 0.128405 32.7602 0.196002 32.8321 0.279171C32.9039 0.362341 32.958 0.459329 32.991 0.564184L34.8016 5.30437Z" fill="#3FAB39"></path></svg>