<svg xmlns="http://www.w3.org/2000/svg" viewBox="-5.0 -10.0 110.0 135.0"><path d="m17.191 41.531c0-0.67188 0.54297-1.2188 1.2188-1.2188h3.7344c0.67188 0 1.2188 0.54297 1.2188 1.2188 0 0.67188-0.54297 1.2188-1.2188 1.2188h-3.7344c-0.67188 0-1.2188-0.54688-1.2188-1.2188zm18.484 32.52h-5.0117l-0.003906 5.0117c0 0.67188-0.54297 1.2188-1.2188 1.2188h-8.1641c-0.67188 0-1.2188-0.54297-1.2188-1.2188v-5.0117h-5.0117c-0.67188 0-1.2188-0.54297-1.2188-1.2188v-8.1641c0-0.67188 0.54297-1.2188 1.2188-1.2188h5.0117v-5.0117c0-0.67188 0.54297-1.2188 1.2188-1.2188h8.1641c0.67188 0 1.2188 0.54297 1.2188 1.2188v5.0117h5.0117c0.67188 0 1.2188 0.54297 1.2188 1.2188v8.1641c0.003906 0.67188-0.54297 1.2188-1.2148 1.2188zm-1.2188-8.168h-5.0117c-0.67187 0-1.2188-0.54297-1.2188-1.2188v-5.0117h-5.7305v5.0117c0 0.67188-0.54297 1.2188-1.2188 1.2188h-5.0117v5.7305h5.0117c0.67188 0 1.2188 0.54297 1.2188 1.2188v5.0117h5.7305v-5.0117c0-0.67188 0.54297-1.2188 1.2188-1.2188h5.0117zm62.418-1.1914v24.66c0 3.6133-2.9414 6.5508-6.5508 6.5508h-16.215c-3.6133 0-6.5508-2.9414-6.5508-6.5508v-24.66c0-3.5234 2.7969-6.4062 6.2852-6.5469v-4.125c-2.0977-0.41406-3.6836-2.2695-3.6836-4.4844 0-2.5234 2.0508-4.5742 4.5742-4.5742h14.965c2.5234 0 4.5742 2.0508 4.5742 4.5742 0 2.2148-1.5859 4.0703-3.6836 4.4844v4.1211c3.4883 0.14062 6.2852 3.0234 6.2852 6.5508zm-22.141-13.016h14.965c1.1797 0 2.1367-0.96094 2.1367-2.1367 0-1.1797-0.96094-2.1367-2.1367-2.1367l-14.965-0.003906c-1.1797 0-2.1367 0.96094-2.1367 2.1367 0 1.1797 0.95703 2.1406 2.1367 2.1406zm19.707 13.016c0-2.2695-1.8477-4.1172-4.1172-4.1172h-0.95312c-0.67188 0-1.2188-0.54297-1.2188-1.2188v-5.2461h-11.875v5.2461c0 0.67188-0.54297 1.2188-1.2188 1.2188h-0.95312c-2.2695 0-4.1172 1.8477-4.1172 4.1172v24.66c0 2.2695 1.8477 4.1172 4.1172 4.1172h16.219c2.2695 0 4.1172-1.8477 4.1172-4.1172zm-2.4219 0.79688v23.062c0 0.67188-0.54297 1.2188-1.2188 1.2188h-17.172c-0.67188 0-1.2188-0.54297-1.2188-1.2188l0.003906-23.062c0-0.67188 0.54297-1.2188 1.2188-1.2188h17.172c0.67187 0 1.2148 0.54688 1.2148 1.2188zm-2.4336 1.2148h-14.738v20.629h14.738zm-12.184 5.8867h9.6328c0.67188 0 1.2188-0.54297 1.2188-1.2188 0-0.67188-0.54297-1.2188-1.2188-1.2188h-9.6328c-0.67188 0-1.2188 0.54297-1.2188 1.2188 0 0.67578 0.54297 1.2188 1.2188 1.2188zm0 5.6484h9.6328c0.67188 0 1.2188-0.54297 1.2188-1.2188 0-0.67188-0.54297-1.2188-1.2188-1.2188h-9.6328c-0.67188 0-1.2188 0.54297-1.2188 1.2188 0 0.67188 0.54297 1.2188 1.2188 1.2188zm0 5.6445h6.0859c0.67188 0 1.2188-0.54297 1.2188-1.2188 0-0.67187-0.54297-1.2188-1.2188-1.2188h-6.0859c-0.67188 0-1.2188 0.54297-1.2188 1.2188 0 0.67578 0.54297 1.2188 1.2188 1.2188zm-12.609-4.8086c0.61719 3.8281-0.29297 7.668-2.5664 10.812-2.2695 3.1445-5.6289 5.2148-9.457 5.832-0.78125 0.125-1.5664 0.1875-2.3398 0.1875-2.4336 0-4.8164-0.61328-6.957-1.793-1.6367 1.1602-3.6016 1.793-5.6133 1.793h-25c-5.3672-0.003906-9.7344-4.3711-9.7344-9.7422v-35.262c0-1.6758 0.66406-3.1445 1.9219-4.25l6.8672-6.0352c0.72656-0.63672 1.0938-1.4531 1.0938-2.418v-6.0156c-1.2578-0.48828-2.1523-1.7148-2.1523-3.1445v-1.9766c0-1.8594 1.5117-3.3711 3.3711-3.3711h22.27c1.8594 0 3.3711 1.5117 3.3711 3.3711v1.9766c0 1.4297-0.89453 2.6523-2.1523 3.1445v6.0156c0 0.96484 0.36719 1.7812 1.0938 2.418l6.8672 6.0352c1.2578 1.1055 1.9219 2.5742 1.9219 4.25v16.25c0.18359-0.035156 0.36719-0.074219 0.55078-0.10156 3.8281-0.61719 7.668 0.29297 10.812 2.5664 3.1445 2.2656 5.2148 5.625 5.832 9.457zm-21.461-7.4492 18.637 13.461c0.57812-1.793 0.73047-3.7109 0.42578-5.625-0.51172-3.1875-2.2383-5.9805-4.8555-7.8711-2.6172-1.8906-5.8125-2.6484-9-2.1328-1.918 0.30469-3.6875 1.0547-5.207 2.168zm-30.039-42.586c0 0.51563 0.41797 0.93359 0.93359 0.93359h22.27c0.51562 0 0.93359-0.41797 0.93359-0.93359v-1.9766c0-0.51562-0.41797-0.93359-0.93359-0.93359h-22.27c-0.51562 0-0.93359 0.41797-0.93359 0.93359zm-7.6406 21.074h39.418c-0.14844-0.62891-0.48047-1.1758-1.0039-1.6328l-6.5234-5.7344-11.531 0.003906c-0.67188 0-1.2188-0.54297-1.2188-1.2188 0-0.67188 0.54297-1.2188 1.2188-1.2188h9.6641c-0.26172-0.65625-0.39844-1.3633-0.39844-2.1172v-5.7891l-19.832 0.003906v5.7891c0 1.6758-0.66406 3.1445-1.9219 4.25l-6.8672 6.0352c-0.51953 0.45312-0.85156 1.0039-1.0039 1.6289zm-0.09375 34.836h30.828c-0.10156-0.41406-0.19141-0.82812-0.26172-1.2539-0.61719-3.8281 0.29297-7.668 2.5664-10.812 1.6562-2.293 3.8945-4.0156 6.4727-5.0195v-15.312h-39.605zm32.305 8.5195c1.1914 0 2.3594-0.29688 3.4062-0.85156-1.75-1.4258-3.1172-3.2148-4.0273-5.2344h-31.582c0.58203 3.4492 3.5898 6.0859 7.1992 6.0859zm19.727-2.3242-18.633-13.461c-0.57812 1.793-0.73047 3.7109-0.42578 5.625 0.51172 3.1875 2.2383 5.9805 4.8555 7.8711 2.6172 1.8906 5.8125 2.6484 9 2.1328 1.9102-0.30859 3.6836-1.0586 5.2031-2.168zm3.3711-3.7812-19.477-14.07c-0.28906 0.32031-0.5625 0.66016-0.82031 1.0117-0.25781 0.35547-0.49219 0.72266-0.70312 1.0977l19.477 14.066c0.28906-0.32031 0.5625-0.66016 0.82031-1.0117 0.25391-0.35547 0.48828-0.71875 0.70313-1.0938zm-44.301-76.602c0.67188 0 1.2188-0.54297 1.2188-1.2188v-4.2305c0-0.67188-0.54297-1.2188-1.2188-1.2188-0.67188 0-1.2148 0.54688-1.2148 1.2188v4.2344c0 0.67188 0.54297 1.2148 1.2148 1.2148zm2.582 2.5859h4.2344c0.67188 0 1.2188-0.54297 1.2188-1.2188 0-0.67188-0.54297-1.2188-1.2188-1.2188h-4.2344c-0.67188 0-1.2188 0.54297-1.2188 1.2188 0.003906 0.67188 0.54687 1.2188 1.2188 1.2188zm-2.582 6.8125c0.67188 0 1.2188-0.54297 1.2188-1.2188v-4.2344c0-0.67188-0.54297-1.2188-1.2188-1.2188-0.67188 0-1.2188 0.54297-1.2188 1.2188v4.2344c0.003906 0.67578 0.54688 1.2188 1.2188 1.2188zm-6.8125-6.8125h4.2344c0.67188 0 1.2188-0.54297 1.2188-1.2188 0-0.67188-0.54297-1.2188-1.2188-1.2188h-4.2344c-0.67188 0-1.2188 0.54297-1.2188 1.2188 0 0.67188 0.54297 1.2188 1.2188 1.2188zm73.492-2.5859c0.67188 0 1.2188-0.54297 1.2188-1.2188l-0.003906-4.2305c0-0.67188-0.54297-1.2188-1.2188-1.2188-0.67188 0-1.2188 0.54297-1.2188 1.2188v4.2344c0.003906 0.67188 0.54687 1.2148 1.2227 1.2148zm2.582 2.5859h4.2344c0.67188 0 1.2188-0.54297 1.2188-1.2188 0-0.67188-0.54297-1.2188-1.2188-1.2188h-4.2344c-0.67188 0-1.2188 0.54297-1.2188 1.2188 0 0.67188 0.54297 1.2188 1.2188 1.2188zm-2.582 6.8125c0.67188 0 1.2188-0.54297 1.2188-1.2188v-4.2344c0-0.67188-0.54297-1.2188-1.2188-1.2188-0.67188 0-1.2188 0.54297-1.2188 1.2188v4.2344c0 0.67578 0.54297 1.2188 1.2188 1.2188zm-6.8164-6.8125h4.2344c0.67188 0 1.2188-0.54297 1.2188-1.2188 0-0.67188-0.54297-1.2188-1.2188-1.2188h-4.2344c-0.67188 0-1.2188 0.54297-1.2188 1.2188 0 0.67188 0.54687 1.2188 1.2188 1.2188z"></path><text x="0.0" y="117.5" font-size="5.0" font-weight="bold" font-family="Arbeit Regular, Helvetica, Arial-Unicode, Arial, Sans-serif" fill="#000000">Created by Dahlia nur aini</text><text x="0.0" y="122.5" font-size="5.0" font-weight="bold" font-family="Arbeit Regular, Helvetica, Arial-Unicode, Arial, Sans-serif" fill="#000000">from Noun Project</text></svg>