<svg width="15" height="15" viewBox="0 0 15 15" fill="none" xmlns="http://www.w3.org/2000/svg">
<path d="M13.0795 8.21136C12.9147 8.21136 12.7423 8.15891 12.5775 8.12145C12.2437 8.0479 11.9157 7.95025 11.5961 7.82927C11.2485 7.70283 10.8665 7.70939 10.5235 7.8477C10.1805 7.98601 9.90073 8.24629 9.73809 8.57846L9.57327 8.91559C8.84356 8.50967 8.17302 8.0055 7.58043 7.41721C6.99214 6.82462 6.48797 6.15408 6.08205 5.42437L6.39671 5.2146C6.72887 5.05196 6.98915 4.77222 7.12746 4.42922C7.26577 4.08621 7.27234 3.70417 7.1459 3.35661C7.02694 3.03627 6.92933 2.70841 6.85371 2.37517C6.81625 2.21035 6.78629 2.03803 6.76381 1.86572C6.67283 1.33801 6.39642 0.860114 5.98437 0.518107C5.57231 0.1761 5.05168 -0.00754722 4.51624 0.00023772H2.26867C1.94579 -0.00279391 1.62605 0.0637791 1.33122 0.195424C1.03638 0.32707 0.773371 0.520697 0.560092 0.763124C0.346813 1.00555 0.188273 1.29109 0.0952634 1.60029C0.00225408 1.9095 -0.0230402 2.23511 0.0211026 2.55497C0.420225 5.69362 1.85364 8.60983 4.09493 10.843C6.33623 13.0761 9.25764 14.4989 12.3977 14.8866H12.6824C13.2349 14.8874 13.7683 14.6848 14.1808 14.3173C14.4178 14.1053 14.6071 13.8454 14.7363 13.5548C14.8654 13.2642 14.9314 12.9496 14.93 12.6316V10.384C14.9208 9.86361 14.7313 9.36252 14.3938 8.96629C14.0563 8.57005 13.5918 8.30323 13.0795 8.21136ZM13.4541 12.7065C13.4539 12.8129 13.4312 12.918 13.3872 13.0149C13.3433 13.1118 13.2793 13.1982 13.1993 13.2684C13.1159 13.3411 13.018 13.3953 12.9122 13.4276C12.8063 13.4599 12.6948 13.4694 12.585 13.4557C9.77922 13.0959 7.17304 11.8123 5.17756 9.80735C3.18208 7.80237 1.91087 5.19013 1.56443 2.38266C1.55251 2.27292 1.56296 2.1619 1.59515 2.05631C1.62734 1.95072 1.68061 1.85275 1.75173 1.76833C1.82194 1.68841 1.90836 1.62436 2.00524 1.58044C2.10212 1.53652 2.20725 1.51374 2.31362 1.5136H4.56119C4.73541 1.50972 4.90554 1.5667 5.04228 1.67473C5.17902 1.78276 5.27383 1.93507 5.31038 2.10546C5.34035 2.31024 5.37781 2.51252 5.42276 2.7123C5.50931 3.10723 5.62449 3.49534 5.76739 3.87355L4.71852 4.36052C4.62884 4.40167 4.54817 4.46012 4.48115 4.53253C4.41412 4.60494 4.36206 4.68988 4.32795 4.78246C4.29384 4.87505 4.27835 4.97346 4.28238 5.07204C4.28641 5.17063 4.30987 5.26745 4.35142 5.35694C5.42965 7.66651 7.28618 9.52304 9.59575 10.6013C9.77814 10.6762 9.98273 10.6762 10.1651 10.6013C10.2586 10.5679 10.3444 10.5162 10.4177 10.4493C10.491 10.3824 10.5503 10.3017 10.5922 10.2117L11.0567 9.16283C11.444 9.30134 11.8393 9.41642 12.2404 9.50745C12.4402 9.55241 12.6424 9.58987 12.8472 9.61983C13.0176 9.65639 13.1699 9.75119 13.278 9.88793C13.386 10.0247 13.443 10.1948 13.4391 10.369L13.4541 12.7065Z" fill="#3FAB39"/>
</svg>
