<svg xmlns="http://www.w3.org/2000/svg" width="46" height="45" viewBox="0 0 46 45" fill="none"><path d="M9.22362 16.022C10.5678 16.022 11.8818 15.6234 12.9995 14.8766C14.1171 14.1298 14.9882 13.0683 15.5026 11.8265C16.017 10.5846 16.1516 9.21808 15.8894 7.89972C15.6271 6.58136 14.9798 5.37037 14.0294 4.41988C13.0789 3.4694 11.8679 2.82211 10.5495 2.55987C9.23116 2.29763 7.86464 2.43222 6.62277 2.94662C5.3809 3.46102 4.31946 4.33212 3.57267 5.44978C2.82588 6.56743 2.42728 7.88143 2.42728 9.22562C2.42728 11.0281 3.14332 12.7568 4.41788 14.0314C5.69244 15.3059 7.42112 16.022 9.22362 16.022ZM9.22362 3.88564C10.2798 3.88564 11.3122 4.19882 12.1904 4.78559C13.0685 5.37235 13.7529 6.20634 14.1571 7.1821C14.5613 8.15785 14.667 9.23154 14.461 10.2674C14.255 11.3033 13.7464 12.2547 12.9996 13.0016C12.2527 13.7484 11.3013 14.257 10.2654 14.463C9.22954 14.669 8.15585 14.5633 7.1801 14.1591C6.20434 13.755 5.37035 13.0705 4.78359 12.1924C4.19682 11.3142 3.88364 10.2818 3.88364 9.22562C3.88364 7.80937 4.44624 6.45112 5.44768 5.44968C6.44912 4.44824 7.80737 3.88564 9.22362 3.88564Z" fill="#3FAB39"></path><path d="M9.22362 11.3082C9.77556 11.3069 10.3045 11.0871 10.6948 10.6968C11.0851 10.3065 11.3049 9.77756 11.3062 9.22562C11.3062 9.15766 11.3062 9.09455 11.3062 9.02658L12.015 8.66735C12.101 8.62559 12.178 8.56729 12.2416 8.49578C12.3051 8.42427 12.3539 8.34094 12.3853 8.25056C12.4166 8.16017 12.4298 8.06451 12.4242 7.96901C12.4185 7.87352 12.3941 7.78008 12.3524 7.69401C12.3106 7.60795 12.2523 7.53096 12.1808 7.46742C12.1093 7.40389 12.026 7.35507 11.9356 7.32374C11.8452 7.29241 11.7495 7.27919 11.654 7.28483C11.5585 7.29047 11.4651 7.31487 11.379 7.35662L10.6411 7.72071C10.4401 7.52922 10.2023 7.38057 9.94209 7.28381V5.34199C9.94209 5.14887 9.86537 4.96365 9.72881 4.82709C9.59225 4.69053 9.40704 4.61382 9.21391 4.61382C9.02078 4.61382 8.83557 4.69053 8.69901 4.82709C8.56245 4.96365 8.48573 5.14887 8.48573 5.34199V7.28381C8.02925 7.45411 7.64714 7.77942 7.40618 8.20287C7.16522 8.62632 7.08072 9.12099 7.16747 9.60042C7.25422 10.0798 7.50669 10.5135 7.88076 10.8257C8.25483 11.1379 8.7267 11.3087 9.21391 11.3082H9.22362ZM9.22362 8.59938C9.34823 8.59552 9.47116 8.62894 9.57667 8.69535C9.68217 8.76177 9.76545 8.85817 9.81584 8.97221C9.86623 9.08624 9.88144 9.21272 9.85951 9.33545C9.83759 9.45818 9.77953 9.57157 9.69277 9.66111C9.60601 9.75064 9.49451 9.81224 9.37253 9.83802C9.25055 9.8638 9.12366 9.85258 9.00809 9.80581C8.89253 9.75903 8.79355 9.67883 8.72384 9.57547C8.65413 9.47211 8.61686 9.35029 8.6168 9.22562C8.61673 9.06284 8.68003 8.90643 8.79331 8.78953C8.90658 8.67263 9.06092 8.60443 9.22362 8.59938Z" fill="#3FAB39"></path><path d="M42.7199 25.3815V9.84701C42.7199 7.23982 41.6842 4.73942 39.8406 2.89586C37.9971 1.05229 35.4967 0.0165909 32.8895 0.0165909C30.2823 0.0165909 27.7819 1.05229 25.9383 2.89586C24.0947 4.73942 23.059 7.23982 23.059 9.84701V12.1384H22.4765C21.8351 12.1459 21.2221 12.4041 20.7685 12.8576C20.315 13.3112 20.0568 13.9242 20.0492 14.5656V32.9643C20.0568 33.6057 20.315 34.2187 20.7685 34.6723C21.2221 35.1258 21.8351 35.384 22.4765 35.3916H23.0542C22.997 36.9402 22.3376 38.4054 21.2163 39.4751C20.095 40.5448 18.6004 41.1345 17.0507 41.1187C15.5011 41.1029 14.0189 40.4827 12.9196 39.3904C11.8204 38.298 11.191 36.8197 11.1654 35.2702V18.2405C13.3916 17.7611 15.3617 16.4751 16.6965 14.6301C18.0314 12.7852 18.6365 10.5116 18.3954 8.24722C18.1544 5.98281 17.0842 3.88762 15.3908 2.36501C13.6975 0.842394 11.5008 0 9.22363 0C6.94643 0 4.74972 0.842394 3.05641 2.36501C1.36311 3.88762 0.292906 5.98281 0.0518464 8.24722C-0.189213 10.5116 0.415909 12.7852 1.75072 14.6301C3.08552 16.4751 5.05565 17.7611 7.28182 18.2405V35.3187C7.32082 37.8893 8.36527 40.3423 10.1913 42.1519C12.0173 43.9616 14.4796 44.9839 17.0504 44.9998C19.6212 45.0157 22.0959 44.0238 23.9442 42.2369C25.7924 40.4499 26.8671 38.01 26.9378 35.4401H31.6079C32.2493 35.4325 32.8623 35.1744 33.3158 34.7208C33.7694 34.2672 34.0276 33.6542 34.0351 33.0128V14.5899C34.0276 13.9485 33.7694 13.3355 33.3158 12.8819C32.8623 12.4283 32.2493 12.1702 31.6079 12.1626H26.9427V9.83245C26.9427 8.25526 27.5692 6.74267 28.6844 5.62743C29.7997 4.51219 31.3123 3.88565 32.8895 3.88565C34.4667 3.88565 35.9792 4.51219 37.0945 5.62743C38.2097 6.74267 38.8363 8.25526 38.8363 9.83245V25.4009C37.409 25.7796 35.8604 26.8573 35.8604 29.8574C35.8604 33.207 37.8362 38.2654 40.8072 38.2654C43.7782 38.2654 45.754 33.207 45.754 29.8574C45.754 26.8039 44.1617 25.7505 42.7199 25.3815ZM40.8072 36.8091C39.1761 36.8091 37.3168 33.1051 37.3168 29.8574C37.3168 27.1777 38.6566 26.6437 40.8072 26.6437C42.9578 26.6437 44.2976 27.1777 44.2976 29.8574C44.2976 33.1051 42.4383 36.8091 40.8072 36.8091ZM32.8895 2.42929C30.9268 2.43186 29.0453 3.21266 27.6575 4.60046C26.2697 5.98827 25.4889 7.8698 25.4863 9.83245V12.1384H24.5154V9.83245C24.5154 7.61151 25.3977 5.48153 26.9681 3.91109C28.5385 2.34065 30.6685 1.45839 32.8895 1.45839C35.1104 1.45839 37.2404 2.34065 38.8108 3.91109C40.3813 5.48153 41.2635 7.61151 41.2635 9.83245V25.1922H40.2926V9.83245C40.2901 7.8698 39.5093 5.98827 38.1215 4.60046C36.7336 3.21266 34.8521 2.43186 32.8895 2.42929ZM32.6031 14.5656V32.9643C32.5969 33.2198 32.4926 33.4632 32.3119 33.644C32.1311 33.8248 31.8877 33.929 31.6321 33.9352H26.9427V13.5462H31.6079C31.7427 13.546 31.8762 13.5733 32.0003 13.6263C32.1243 13.6793 32.2362 13.757 32.3293 13.8546C32.4224 13.9522 32.4946 14.0677 32.5417 14.1941C32.5888 14.3205 32.6096 14.4552 32.6031 14.5899V14.5656ZM17.1122 43.6928C14.8921 43.6902 12.7636 42.8071 11.1937 41.2373C9.62384 39.6674 8.74075 37.5389 8.73818 35.3187V18.425C8.89838 18.425 9.05857 18.425 9.22363 18.425C9.38868 18.425 9.54888 18.425 9.70908 18.425V35.3187C9.74012 37.2508 10.5253 39.0942 11.8971 40.4552C13.2688 41.8162 15.1183 42.5869 17.0506 42.6027C18.9829 42.6186 20.8448 41.8783 22.2386 40.54C23.6325 39.2017 24.4478 37.3714 24.5105 35.4401H25.4815C25.4483 37.6387 24.5523 39.7362 22.9866 41.2801C21.4209 42.8239 19.3111 43.6905 17.1122 43.6928ZM9.22363 1.45839C10.7598 1.45839 12.2616 1.91393 13.5389 2.7674C14.8162 3.62088 15.8117 4.83396 16.3996 6.25324C16.9875 7.67252 17.1413 9.23425 16.8416 10.7409C16.5419 12.2476 15.8022 13.6316 14.7159 14.7179C13.6296 15.8042 12.2456 16.5439 10.7389 16.8436C9.23225 17.1433 7.67051 16.9895 6.25123 16.4016C4.83195 15.8138 3.61887 14.8182 2.7654 13.5409C1.91192 12.2636 1.45638 10.7619 1.45638 9.22563C1.45638 7.16563 2.27471 5.19 3.73136 3.73336C5.188 2.27672 7.16363 1.45839 9.22363 1.45839ZM21.4813 33.0128V14.5899C21.4875 14.3343 21.5917 14.0909 21.7725 13.9102C21.9533 13.7294 22.1967 13.6251 22.4522 13.619H25.462V34.008H22.4522C22.3215 34.0049 22.1927 33.976 22.0732 33.923C21.9536 33.8701 21.8457 33.7941 21.7555 33.6995C21.6654 33.6048 21.5948 33.4933 21.5477 33.3713C21.5007 33.2493 21.4781 33.1193 21.4813 32.9886V33.0128Z" fill="#3FAB39"></path></svg>