<svg width="19" height="17" viewBox="0 0 19 17" fill="none" xmlns="http://www.w3.org/2000/svg">
<path d="M17 9.61444V7.55556C17 5.5517 16.204 3.62991 14.787 2.21297C13.3701 0.79603 11.4483 0 9.44444 0C7.44059 0 5.5188 0.79603 4.10186 2.21297C2.68492 3.62991 1.88889 5.5517 1.88889 7.55556V9.61444C1.33776 9.8093 0.860387 10.1698 0.52222 10.6467C0.184052 11.1235 0.00164287 11.6932 0 12.2778V14.1667C0 14.9181 0.298511 15.6388 0.829864 16.1701C1.36122 16.7015 2.08189 17 2.83333 17H5.66667C5.91715 17 6.15737 16.9005 6.33449 16.7234C6.51161 16.5463 6.61111 16.306 6.61111 16.0556V10.3889C6.61111 10.1384 6.51161 9.89818 6.33449 9.72107C6.15737 9.54395 5.91715 9.44444 5.66667 9.44444H3.77778V7.55556C3.77778 6.05266 4.3748 4.61132 5.43751 3.54862C6.50021 2.48591 7.94155 1.88889 9.44444 1.88889C10.9473 1.88889 12.3887 2.48591 13.4514 3.54862C14.5141 4.61132 15.1111 6.05266 15.1111 7.55556V9.44444H13.2222C12.9717 9.44444 12.7315 9.54395 12.5544 9.72107C12.3773 9.89818 12.2778 10.1384 12.2778 10.3889V16.0556C12.2778 16.306 12.3773 16.5463 12.5544 16.7234C12.7315 16.9005 12.9717 17 13.2222 17H16.0556C16.807 17 17.5277 16.7015 18.059 16.1701C18.5904 15.6388 18.8889 14.9181 18.8889 14.1667V12.2778C18.8872 11.6932 18.7048 11.1235 18.3667 10.6467C18.0285 10.1698 17.5511 9.8093 17 9.61444ZM4.72222 11.3333V15.1111H2.83333C2.58285 15.1111 2.34263 15.0116 2.16551 14.8345C1.98839 14.6574 1.88889 14.4171 1.88889 14.1667V12.2778C1.88889 12.0273 1.98839 11.7871 2.16551 11.61C2.34263 11.4328 2.58285 11.3333 2.83333 11.3333H4.72222ZM17 14.1667C17 14.4171 16.9005 14.6574 16.7234 14.8345C16.5463 15.0116 16.306 15.1111 16.0556 15.1111H14.1667V11.3333H16.0556C16.306 11.3333 16.5463 11.4328 16.7234 11.61C16.9005 11.7871 17 12.0273 17 12.2778V14.1667Z" fill="#3FAB39"/>
</svg>
